# xmcd CD database file
#
# Track frame offsets:
#	150
#	23765
#	45575
#
# Disc length: 920 seconds
#
# Revision: 0
# Processed by: cddbd v1.5.1PL0 Copyright (c) Steve Scherf et al.
# Submitted via: CDex 1.51
#
DISCID=19039603
DTITLE=谷口崇 - イナミ
DYEAR=2001
DGENRE=Japanese Pop
TTITLE0=イナミ
TTITLE1=COVER ON MY HEART
TTITLE2=イナミ inst.
EXTD=YEAR: 2001
EXTT0=
EXTT1=
EXTT2=
PLAYORDER=
